<svg xmlns="http://www.w3.org/2000/svg" viewBox="0 0 800 400" width="800" height="400">
<style>
  text { font-family: -apple-system, 'Segoe UI', Roboto, sans-serif; fill: #333; }
  .title { font-size: 14px; font-weight: 600; }
  .axis-label { font-size: 11px; }
  .tick-label { font-size: 10px; fill: #666; }
  .grid { stroke: #e0e0e0; stroke-width: 1; }
  .rate-line { fill: none; stroke: #2563eb; stroke-width: 1.5; stroke-linejoin: round; }
  .scenario-rect { fill: #f59e0b; fill-opacity: 0.15; stroke: #f59e0b; stroke-width: 1; stroke-opacity: 0.4; }
  .scenario-label { font-size: 9px; fill: #92400e; }
</style>
<rect width="800" height="400" fill="white"/>
<text x="70" y="24" class="title">traffic-patterns.yaml</text>
<line x1="70" y1="350" x2="780" y2="350" class="grid"/>
<text x="64" y="354" text-anchor="end" class="tick-label">0</text>
<line x1="70" y1="288" x2="780" y2="288" class="grid"/>
<text x="64" y="292" text-anchor="end" class="tick-label">11.0</text>
<line x1="70" y1="226" x2="780" y2="226" class="grid"/>
<text x="64" y="230" text-anchor="end" class="tick-label">22.0</text>
<line x1="70" y1="164" x2="780" y2="164" class="grid"/>
<text x="64" y="168" text-anchor="end" class="tick-label">33.0</text>
<line x1="70" y1="102" x2="780" y2="102" class="grid"/>
<text x="64" y="106" text-anchor="end" class="tick-label">44.0</text>
<line x1="70" y1="40" x2="780" y2="40" class="grid"/>
<text x="64" y="44" text-anchor="end" class="tick-label">55.0</text>
<text x="70" y="370" text-anchor="middle" class="tick-label">0</text>
<text x="141" y="370" text-anchor="middle" class="tick-label">30s</text>
<text x="212" y="370" text-anchor="middle" class="tick-label">1m</text>
<text x="283" y="370" text-anchor="middle" class="tick-label">1m30s</text>
<text x="354" y="370" text-anchor="middle" class="tick-label">2m</text>
<text x="425" y="370" text-anchor="middle" class="tick-label">2m30s</text>
<text x="496" y="370" text-anchor="middle" class="tick-label">3m</text>
<text x="567" y="370" text-anchor="middle" class="tick-label">3m30s</text>
<text x="638" y="370" text-anchor="middle" class="tick-label">4m</text>
<text x="709" y="370" text-anchor="middle" class="tick-label">4m30s</text>
<text x="780" y="370" text-anchor="middle" class="tick-label">5m</text>
<text x="425" y="392" text-anchor="middle" class="axis-label">elapsed time</text>
<text x="16" y="195" text-anchor="middle" transform="rotate(-90,16,195)" class="axis-label">traces/s</text>
<polyline points="70.0,68.2 72.4,68.2 74.7,68.2 77.1,68.2 79.5,68.2 81.8,68.2 84.2,68.2 86.6,68.2 88.9,68.2 91.3,68.2 93.7,68.2 96.0,68.2 98.4,68.2 100.8,68.2 103.1,68.2 105.5,68.2 107.9,68.2 110.2,68.2 112.6,68.2 115.0,68.2 117.3,68.2 119.7,68.2 122.1,68.2 124.4,68.2 126.8,68.2 129.2,68.2 131.5,68.2 133.9,68.2 136.3,68.2 138.6,68.2 141.0,68.2 143.4,68.2 145.7,68.2 148.1,68.2 150.5,68.2 152.8,68.2 155.2,68.2 157.6,68.2 159.9,68.2 162.3,68.2 164.7,68.2 167.0,68.2 169.4,68.2 171.8,68.2 174.1,68.2 176.5,68.2 178.9,68.2 181.2,68.2 183.6,68.2 186.0,68.2 188.3,68.2 190.7,68.2 193.1,68.2 195.4,68.2 197.8,68.2 200.2,68.2 202.5,68.2 204.9,68.2 207.3,68.2 209.6,68.2 212.0,68.2 214.4,68.2 216.7,68.2 219.1,68.2 221.5,68.2 223.8,68.2 226.2,68.2 228.6,68.2 230.9,68.2 233.3,68.2 235.7,68.2 238.0,68.2 240.4,68.2 242.8,68.2 245.1,68.2 247.5,68.2 249.9,68.2 252.2,68.2 254.6,68.2 257.0,68.2 259.3,68.2 261.7,68.2 264.1,68.2 266.4,68.2 268.8,68.2 271.2,68.2 273.5,68.2 275.9,68.2 278.3,68.2 280.6,68.2 283.0,68.2 285.4,68.2 287.7,68.2 290.1,68.2 292.5,68.2 294.8,68.2 297.2,68.2 299.6,68.2 301.9,68.2 304.3,68.2 306.7,68.2 309.0,68.2 311.4,68.2 313.8,68.2 316.1,68.2 318.5,68.2 320.9,68.2 323.2,68.2 325.6,68.2 328.0,68.2 330.3,68.2 332.7,68.2 335.1,68.2 337.4,68.2 339.8,68.2 342.2,68.2 344.5,68.2 346.9,68.2 349.3,68.2 351.6,68.2 354.0,68.2 356.4,68.2 358.7,68.2 361.1,68.2 363.5,68.2 365.8,68.2 368.2,68.2 370.6,68.2 372.9,68.2 375.3,68.2 377.7,68.2 380.0,68.2 382.4,68.2 384.8,68.2 387.1,68.2 389.5,68.2 391.9,68.2 394.2,68.2 396.6,68.2 399.0,68.2 401.3,68.2 403.7,68.2 406.1,68.2 408.4,68.2 410.8,68.2 413.2,68.2 415.5,68.2 417.9,68.2 420.3,68.2 422.6,68.2 425.0,68.2 427.4,68.2 429.7,68.2 432.1,68.2 434.5,68.2 436.8,68.2 439.2,68.2 441.6,68.2 443.9,68.2 446.3,68.2 448.7,68.2 451.0,68.2 453.4,68.2 455.8,68.2 458.1,68.2 460.5,68.2 462.9,68.2 465.2,68.2 467.6,68.2 470.0,68.2 472.3,68.2 474.7,68.2 477.1,68.2 479.4,68.2 481.8,68.2 484.2,68.2 486.5,68.2 488.9,68.2 491.3,68.2 493.6,68.2 496.0,68.2 498.4,68.2 500.7,68.2 503.1,68.2 505.5,68.2 507.8,68.2 510.2,68.2 512.6,68.2 514.9,68.2 517.3,68.2 519.7,68.2 522.0,68.2 524.4,68.2 526.8,68.2 529.1,68.2 531.5,68.2 533.9,68.2 536.2,68.2 538.6,68.2 541.0,68.2 543.3,68.2 545.7,68.2 548.1,68.2 550.4,68.2 552.8,68.2 555.2,68.2 557.5,68.2 559.9,68.2 562.3,68.2 564.6,68.2 567.0,68.2 569.4,68.2 571.7,68.2 574.1,68.2 576.5,68.2 578.8,68.2 581.2,68.2 583.6,68.2 585.9,68.2 588.3,68.2 590.7,68.2 593.0,68.2 595.4,68.2 597.8,68.2 600.1,68.2 602.5,68.2 604.9,68.2 607.2,68.2 609.6,68.2 612.0,68.2 614.3,68.2 616.7,68.2 619.1,68.2 621.4,68.2 623.8,68.2 626.2,68.2 628.5,68.2 630.9,68.2 633.3,68.2 635.6,68.2 638.0,68.2 640.4,68.2 642.7,68.2 645.1,68.2 647.5,68.2 649.8,68.2 652.2,68.2 654.6,68.2 656.9,68.2 659.3,68.2 661.7,68.2 664.0,68.2 666.4,68.2 668.8,68.2 671.1,68.2 673.5,68.2 675.9,68.2 678.2,68.2 680.6,68.2 683.0,68.2 685.3,68.2 687.7,68.2 690.1,68.2 692.4,68.2 694.8,68.2 697.2,68.2 699.5,68.2 701.9,68.2 704.3,68.2 706.6,68.2 709.0,68.2 711.4,68.2 713.7,68.2 716.1,68.2 718.5,68.2 720.8,68.2 723.2,68.2 725.6,68.2 727.9,68.2 730.3,68.2 732.7,68.2 735.0,68.2 737.4,68.2 739.8,68.2 742.1,68.2 744.5,68.2 746.9,68.2 749.2,68.2 751.6,68.2 754.0,68.2 756.3,68.2 758.7,68.2 761.1,68.2 763.4,68.2 765.8,68.2 768.2,68.2 770.5,68.2 772.9,68.2 775.3,68.2 777.6,68.2 780.0,68.2" class="rate-line"/>
<rect x="70" y="40" width="710" height="310" fill="none" stroke="#ccc" stroke-width="1"/>
</svg>
