<svg xmlns="http://www.w3.org/2000/svg" viewBox="0 0 800 400" width="800" height="400">
<style>
  text { font-family: -apple-system, 'Segoe UI', Roboto, sans-serif; fill: #333; }
  .title { font-size: 14px; font-weight: 600; }
  .axis-label { font-size: 11px; }
  .tick-label { font-size: 10px; fill: #666; }
  .grid { stroke: #e0e0e0; stroke-width: 1; }
  .rate-line { fill: none; stroke: #2563eb; stroke-width: 1.5; stroke-linejoin: round; }
  .scenario-rect { fill: #f59e0b; fill-opacity: 0.15; stroke: #f59e0b; stroke-width: 1; stroke-opacity: 0.4; }
  .scenario-label { font-size: 9px; fill: #92400e; }
</style>
<rect width="800" height="400" fill="white"/>
<text x="70" y="24" class="title">bursty.yaml</text>
<line x1="70" y1="350" x2="780" y2="350" class="grid"/>
<text x="64" y="354" text-anchor="end" class="tick-label">0</text>
<line x1="70" y1="288" x2="780" y2="288" class="grid"/>
<text x="64" y="292" text-anchor="end" class="tick-label">55</text>
<line x1="70" y1="226" x2="780" y2="226" class="grid"/>
<text x="64" y="230" text-anchor="end" class="tick-label">110</text>
<line x1="70" y1="164" x2="780" y2="164" class="grid"/>
<text x="64" y="168" text-anchor="end" class="tick-label">165</text>
<line x1="70" y1="102" x2="780" y2="102" class="grid"/>
<text x="64" y="106" text-anchor="end" class="tick-label">220</text>
<line x1="70" y1="40" x2="780" y2="40" class="grid"/>
<text x="64" y="44" text-anchor="end" class="tick-label">275</text>
<text x="70" y="370" text-anchor="middle" class="tick-label">0</text>
<text x="141" y="370" text-anchor="middle" class="tick-label">30s</text>
<text x="212" y="370" text-anchor="middle" class="tick-label">1m</text>
<text x="283" y="370" text-anchor="middle" class="tick-label">1m30s</text>
<text x="354" y="370" text-anchor="middle" class="tick-label">2m</text>
<text x="425" y="370" text-anchor="middle" class="tick-label">2m30s</text>
<text x="496" y="370" text-anchor="middle" class="tick-label">3m</text>
<text x="567" y="370" text-anchor="middle" class="tick-label">3m30s</text>
<text x="638" y="370" text-anchor="middle" class="tick-label">4m</text>
<text x="709" y="370" text-anchor="middle" class="tick-label">4m30s</text>
<text x="780" y="370" text-anchor="middle" class="tick-label">5m</text>
<text x="425" y="392" text-anchor="middle" class="axis-label">elapsed time</text>
<text x="16" y="195" text-anchor="middle" transform="rotate(-90,16,195)" class="axis-label">traces/s</text>
<polyline points="70.0,68.2 72.4,68.2 74.7,68.2 77.1,68.2 79.5,68.2 81.8,68.2 84.2,68.2 86.6,68.2 88.9,68.2 91.3,68.2 93.7,293.6 96.0,293.6 98.4,293.6 100.8,293.6 103.1,293.6 105.5,293.6 107.9,293.6 110.2,293.6 112.6,293.6 115.0,293.6 117.3,293.6 119.7,293.6 122.1,293.6 124.4,293.6 126.8,293.6 129.2,293.6 131.5,293.6 133.9,293.6 136.3,293.6 138.6,293.6 141.0,293.6 143.4,293.6 145.7,293.6 148.1,293.6 150.5,293.6 152.8,293.6 155.2,293.6 157.6,293.6 159.9,293.6 162.3,293.6 164.7,293.6 167.0,293.6 169.4,293.6 171.8,293.6 174.1,293.6 176.5,293.6 178.9,293.6 181.2,293.6 183.6,293.6 186.0,293.6 188.3,293.6 190.7,293.6 193.1,293.6 195.4,293.6 197.8,293.6 200.2,293.6 202.5,293.6 204.9,293.6 207.3,293.6 209.6,293.6 212.0,68.2 214.4,68.2 216.7,68.2 219.1,68.2 221.5,68.2 223.8,68.2 226.2,68.2 228.6,68.2 230.9,68.2 233.3,68.2 235.7,293.6 238.0,293.6 240.4,293.6 242.8,293.6 245.1,293.6 247.5,293.6 249.9,293.6 252.2,293.6 254.6,293.6 257.0,293.6 259.3,293.6 261.7,293.6 264.1,293.6 266.4,293.6 268.8,293.6 271.2,293.6 273.5,293.6 275.9,293.6 278.3,293.6 280.6,293.6 283.0,293.6 285.4,293.6 287.7,293.6 290.1,293.6 292.5,293.6 294.8,293.6 297.2,293.6 299.6,293.6 301.9,293.6 304.3,293.6 306.7,293.6 309.0,293.6 311.4,293.6 313.8,293.6 316.1,293.6 318.5,293.6 320.9,293.6 323.2,293.6 325.6,293.6 328.0,293.6 330.3,293.6 332.7,293.6 335.1,293.6 337.4,293.6 339.8,293.6 342.2,293.6 344.5,293.6 346.9,293.6 349.3,293.6 351.6,293.6 354.0,68.2 356.4,68.2 358.7,68.2 361.1,68.2 363.5,68.2 365.8,68.2 368.2,68.2 370.6,68.2 372.9,68.2 375.3,68.2 377.7,293.6 380.0,293.6 382.4,293.6 384.8,293.6 387.1,293.6 389.5,293.6 391.9,293.6 394.2,293.6 396.6,293.6 399.0,293.6 401.3,293.6 403.7,293.6 406.1,293.6 408.4,293.6 410.8,293.6 413.2,293.6 415.5,293.6 417.9,293.6 420.3,293.6 422.6,293.6 425.0,293.6 427.4,293.6 429.7,293.6 432.1,293.6 434.5,293.6 436.8,293.6 439.2,293.6 441.6,293.6 443.9,293.6 446.3,293.6 448.7,293.6 451.0,293.6 453.4,293.6 455.8,293.6 458.1,293.6 460.5,293.6 462.9,293.6 465.2,293.6 467.6,293.6 470.0,293.6 472.3,293.6 474.7,293.6 477.1,293.6 479.4,293.6 481.8,293.6 484.2,293.6 486.5,293.6 488.9,293.6 491.3,293.6 493.6,293.6 496.0,68.2 498.4,68.2 500.7,68.2 503.1,68.2 505.5,68.2 507.8,68.2 510.2,68.2 512.6,68.2 514.9,68.2 517.3,68.2 519.7,293.6 522.0,293.6 524.4,293.6 526.8,293.6 529.1,293.6 531.5,293.6 533.9,293.6 536.2,293.6 538.6,293.6 541.0,293.6 543.3,293.6 545.7,293.6 548.1,293.6 550.4,293.6 552.8,293.6 555.2,293.6 557.5,293.6 559.9,293.6 562.3,293.6 564.6,293.6 567.0,293.6 569.4,293.6 571.7,293.6 574.1,293.6 576.5,293.6 578.8,293.6 581.2,293.6 583.6,293.6 585.9,293.6 588.3,293.6 590.7,293.6 593.0,293.6 595.4,293.6 597.8,293.6 600.1,293.6 602.5,293.6 604.9,293.6 607.2,293.6 609.6,293.6 612.0,293.6 614.3,293.6 616.7,293.6 619.1,293.6 621.4,293.6 623.8,293.6 626.2,293.6 628.5,293.6 630.9,293.6 633.3,293.6 635.6,293.6 638.0,68.2 640.4,68.2 642.7,68.2 645.1,68.2 647.5,68.2 649.8,68.2 652.2,68.2 654.6,68.2 656.9,68.2 659.3,68.2 661.7,293.6 664.0,293.6 666.4,293.6 668.8,293.6 671.1,293.6 673.5,293.6 675.9,293.6 678.2,293.6 680.6,293.6 683.0,293.6 685.3,293.6 687.7,293.6 690.1,293.6 692.4,293.6 694.8,293.6 697.2,293.6 699.5,293.6 701.9,293.6 704.3,293.6 706.6,293.6 709.0,293.6 711.4,293.6 713.7,293.6 716.1,293.6 718.5,293.6 720.8,293.6 723.2,293.6 725.6,293.6 727.9,293.6 730.3,293.6 732.7,293.6 735.0,293.6 737.4,293.6 739.8,293.6 742.1,293.6 744.5,293.6 746.9,293.6 749.2,293.6 751.6,293.6 754.0,293.6 756.3,293.6 758.7,293.6 761.1,293.6 763.4,293.6 765.8,293.6 768.2,293.6 770.5,293.6 772.9,293.6 775.3,293.6 777.6,293.6 780.0,68.2" class="rate-line"/>
<rect x="70" y="40" width="710" height="310" fill="none" stroke="#ccc" stroke-width="1"/>
</svg>
